<svg xmlns="http://www.w3.org/2000/svg" viewBox="0 0 637 573" width="637" height="573">
  <g transform="translate(0.000000,573.000000) scale(0.100000,-0.100000)" fill="#0D0D0C" fill-rule="evenodd">
    <path d="M740 5357 c-174 -59 -300 -205 -329 -384 -9 -49 -11 -618 -9 -2093
l3 -2025 26 -67 c70 -181 215 -311 391 -353 55 -13 368 -15 2339 -15 1474 0
2295 4 2330 10 134 25 281 134 346 256 68 128 63 -21 63 1973 0 1495 -3 1815
-14 1857 -35 133 -135 253 -263 316 l-68 33 -1311 5 c-722 3 -1316 9 -1321 13
-4 5 -87 113 -183 240 -96 127 -186 237 -200 244 -19 10 -215 13 -880 13
l-855 -1 -65 -22z m2094 -454 c4 -9 3 -20 -2 -25 -5 -5 -421 -9 -938 -8 -564
0 -952 -4 -988 -10 -157 -26 -283 -142 -326 -298 -9 -36 -15 -43 -33 -40 -32
4 -33 44 -3 113 57 127 155 221 275 262 l66 22 971 1 c898 0 972 -1 978 -17z"/>
  </g>
  <g transform="translate(0.000000,573.000000) scale(0.100000,-0.100000)" fill="#FEC301" fill-rule="evenodd">
    <path d="M910 3090 l0 -1360 33 0 c31 0 35 4 70 76 44 89 40 104 -23 87 -22
-5 -40 -6 -40 -2 0 5 5 9 11 9 6 0 3 7 -6 16 -34 34 -8 56 96 78 25 5 26 9 32
88 3 45 3 225 0 400 l-6 318 183 0 c169 0 185 -2 217 -21 19 -12 39 -33 45
-48 8 -17 12 -145 13 -367 l1 -342 -25 -28 c-14 -16 -23 -25 -18 -20 4 6 7 16
7 24 0 12 -11 13 -55 8 -30 -3 -55 -2 -55 3 0 16 -39 19 -111 8 -53 -8 -75 -8
-90 1 -32 20 -75 15 -93 -13 -19 -29 -21 -65 -3 -66 19 -1 204 2 284 4 95 3
71 -10 -36 -19 -121 -10 -144 -22 -175 -90 -14 -31 -26 -61 -26 -66 0 -7 16
-8 40 -4 22 3 58 9 80 12 48 8 51 -2 12 -44 -21 -22 -43 -33 -87 -42 -33 -6
-67 -13 -76 -16 -9 -2 -55 -89 -107 -200 l-92 -196 0 -334 0 -334 1090 0 1090
0 0 402 c0 388 -1 401 -18 385 -10 -10 -22 -14 -27 -10 -4 5 -5 2 -1 -5 19
-32 -70 -87 -200 -122 -75 -20 -84 -20 -111 -6 -44 22 -66 61 -59 101 6 33 46
69 138 127 27 17 56 15 70 -6 12 -17 10 -23 -23 -61 -18 -20 -29 -38 -26 -41
7 -7 120 51 136 70 7 8 10 19 7 25 -4 5 3 12 14 16 11 3 20 13 20 21 0 8 5 14
11 14 14 0 38 30 39 48 0 9 -15 11 -63 6 -62 -6 -64 -6 -90 25 -36 43 -44 108
-22 169 13 34 43 72 111 140 l94 93 0 1225 0 1224 -1090 0 -1090 0 0 -1360z
m300 1000 c0 -34 -3 -40 -20 -40 -11 0 -23 7 -26 15 -10 25 -34 17 -34 -10 0
-22 4 -25 40 -25 l40 0 0 -70 0 -70 -65 0 c-64 0 -65 1 -65 26 0 25 2 26 40
20 38 -6 40 -5 40 19 0 23 -4 25 -40 25 l-40 0 0 75 0 75 65 0 65 0 0 -40z
m200 -80 l0 -120 -25 0 c-23 0 -25 3 -25 50 0 42 -3 50 -19 50 -16 0 -17 -6
-13 -50 4 -50 4 -50 -24 -50 l-29 0 2 93 c2 166 -6 147 68 147 l65 0 0 -120z
m110 19 c0 -90 2 -100 18 -97 14 3 17 15 18 78 1 114 2 120 23 120 25 0 31
-30 29 -147 l-2 -93 -68 0 -68 0 0 120 0 120 25 0 25 0 0 -101z m200 1 c0 -80
3 -100 14 -100 8 0 18 5 21 10 3 6 15 10 26 10 14 0 19 -7 19 -30 l0 -30 -65
0 -65 0 0 120 0 120 25 0 25 0 0 -100z m192 73 c2 -16 2 -70 0 -120 -3 -91 -4
-93 -28 -93 l-24 0 0 113 c0 63 3 117 7 120 17 17 42 6 45 -20z m123 -3 c9
-16 19 -30 24 -30 5 0 14 14 21 30 9 21 19 30 36 30 24 0 24 0 24 -120 l0
-120 -25 0 c-24 0 -25 3 -25 56 0 49 -2 55 -15 44 -12 -10 -18 -10 -30 0 -13
11 -15 5 -15 -44 0 -53 -1 -56 -25 -56 -24 0 -25 3 -26 58 0 31 -1 73 -1 92
-2 77 1 90 22 90 12 0 26 -12 35 -30z m295 -10 c0 -36 -2 -40 -25 -40 -16 0
-25 6 -25 15 0 8 -7 15 -15 15 -9 0 -15 -9 -15 -25 0 -16 6 -25 15 -25 9 0 15
-9 15 -25 0 -16 -6 -25 -15 -25 -9 0 -15 -9 -15 -25 0 -24 2 -25 40 -19 38 6
40 5 40 -20 0 -25 -1 -26 -65 -26 l-65 0 0 120 0 120 65 0 65 0 0 -40z m188
23 c4 -10 7 -63 7 -118 l0 -100 -67 -3 -68 -3 0 121 0 120 60 0 c48 0 62 -4
68 -17z m202 -23 c0 -36 -2 -40 -25 -40 -16 0 -25 6 -25 15 0 8 -7 15 -15 15
-9 0 -15 -9 -15 -25 0 -16 6 -25 15 -25 9 0 15 -9 15 -25 0 -16 -6 -25 -15
-25 -9 0 -15 -9 -15 -25 0 -24 2 -25 40 -19 38 6 40 5 40 -20 0 -25 -1 -26
-65 -26 l-65 0 0 120 0 120 65 0 65 0 0 -40z m200 0 c0 -34 -3 -40 -21 -40
-12 0 -27 7 -34 17 -14 19 -35 9 -35 -18 0 -15 7 -19 39 -19 38 0 38 0 45 -46
13 -97 15 -94 -64 -94 -69 0 -70 1 -70 26 0 24 3 26 43 22 37 -3 42 0 45 20 3
20 -1 22 -42 22 l-46 0 0 68 c0 38 3 72 7 75 3 4 35 7 70 7 l63 0 0 -40z
m-718 -1362 c1 -40 2 -234 2 -430 l1 -358 -72 0 c-40 0 -73 2 -73 5 0 3 8 23
18 44 18 37 18 39 1 50 -21 12 -88 15 -105 3 -5 -4 -20 -27 -32 -52 l-22 -45
65 -3 c36 -2 65 -7 65 -11 0 -37 -108 -283 -121 -275 -5 3 -6 -1 -3 -9 3 -8
-20 -67 -51 -132 -30 -65 -53 -121 -50 -124 3 -3 24 0 46 6 50 13 125 11 122
-3 -1 -7 18 -11 52 -10 30 0 55 -3 56 -9 1 -5 -13 -22 -32 -37 -28 -23 -47
-28 -109 -33 -76 -6 -172 -28 -200 -46 -37 -23 -68 -32 -113 -34 -48 -2 -49
-1 -43 26 5 26 4 27 -24 19 -18 -5 -30 -5 -30 1 0 5 5 9 12 9 6 0 4 6 -6 13
-34 25 -16 51 49 68 l60 16 72 154 c40 85 92 197 116 249 25 52 47 109 50 127
l6 32 -82 3 -82 3 0 410 c0 226 3 418 7 428 7 15 27 17 228 17 l220 0 2 -72z
m676 -15 l-3 -88 -72 -3 -73 -3 -1 -122 c-1 -67 -3 -169 -5 -227 -2 -58 -1
-136 3 -173 l6 -67 33 0 c22 0 34 -5 34 -14 0 -10 12 -12 49 -8 63 6 71 -9 25
-46 -31 -26 -46 -30 -124 -36 -118 -10 -146 -25 -176 -100 -13 -33 -22 -61
-21 -62 1 -1 25 2 52 7 28 5 65 11 83 14 l33 6 -26 -40 c-24 -35 -34 -41 -83
-51 -109 -21 -102 -15 -165 -155 -31 -70 -55 -130 -53 -133 3 -2 34 1 69 7 84
15 97 14 97 -4 0 -13 9 -15 50 -9 38 5 50 3 50 -6 0 -18 -30 -50 -46 -50 -7 0
-14 -4 -16 -10 -1 -5 -43 -14 -93 -20 -136 -15 -169 -21 -180 -34 -18 -23 -54
-37 -88 -34 -18 1 -38 -1 -44 -5 -18 -11 -25 10 -12 34 11 21 9 21 -23 15 -34
-6 -34 -6 -36 33 l-3 40 59 12 59 12 62 132 c33 73 61 137 61 143 0 7 -7 12
-15 12 -9 0 -15 9 -15 25 0 18 5 25 19 25 38 0 52 14 81 78 42 92 41 96 -22
89 -29 -3 -48 -3 -41 0 10 3 10 9 0 24 -20 32 3 53 74 67 35 7 69 19 75 27 6
8 19 15 28 15 15 0 16 24 12 273 -2 149 -5 282 -5 294 -1 20 -7 22 -73 25
l-73 3 -3 74 c-2 41 -1 80 2 88 4 10 53 13 241 13 l236 0 -3 -87z m-1188 -735
c0 -10 -6 -18 -12 -19 -10 0 -10 -2 0 -6 20 -8 15 -24 -44 -144 -31 -63 -67
-142 -80 -177 -13 -34 -44 -102 -68 -150 -24 -48 -47 -98 -51 -112 -17 -57
-55 -118 -77 -124 -39 -10 -78 -7 -84 8 -3 8 3 34 14 58 10 23 27 62 37 86 10
23 21 42 26 42 4 0 5 9 2 19 -3 10 5 41 17 68 12 26 55 122 94 213 65 149 104
224 143 271 12 15 16 15 48 0 20 -9 34 -24 35 -33z"/>
    <path d="M1330 4060 c0 -11 7 -20 15 -20 8 0 15 9 15 20 0 11 -7 20 -15 20 -8
0 -15 -9 -15 -20z"/>
    <path d="M2447 4073 c-4 -3 -7 -37 -7 -75 0 -63 2 -68 21 -68 20 0 21 4 15 53
-3 28 -6 62 -6 75 0 22 -10 28 -23 15z"/>
    <path d="M1918 2533 c-3 -49 -7 -161 -8 -250 l-2 -163 68 0 67 0 -6 167 c-4
91 -7 204 -7 250 l0 83 -54 0 -53 0 -5 -87z"/>
    <path d="M2557 1993 c-2 -21 -1 -42 3 -46 4 -4 42 -7 86 -5 l79 3 3 37 3 37
-64 -6 c-43 -4 -67 -2 -71 6 -15 23 -34 10 -39 -26z"/>
    <path d="M2550 1879 c0 -5 5 -7 10 -4 6 3 10 8 10 11 0 2 -4 4 -10 4 -5 0 -10
-5 -10 -11z"/>
    <path d="M2266 1374 c-10 -25 -7 -34 9 -34 9 0 15 9 15 25 0 28 -15 34 -24 9z"/>
    <path d="M1258 2548 c-2 -40 -4 -154 -4 -253 l1 -180 59 -3 59 -3 -6 182 c-4
100 -7 215 -7 256 l0 73 -49 0 -48 0 -5 -72z"/>
    <path d="M3122 2008 c-31 -19 -33 -25 -30 -62 3 -23 1 -51 -3 -63 -13 -35 4
-34 50 3 46 36 57 39 80 25 22 -14 4 -46 -64 -110 -40 -37 -65 -68 -65 -81 0
-17 4 -20 23 -15 12 4 33 17 47 29 41 36 98 76 109 76 18 0 49 50 56 91 9 50
-8 72 -84 105 -65 29 -77 29 -119 2z"/>
    <path d="M3062 1817 c-12 -13 -22 -31 -22 -41 0 -10 -6 -16 -17 -14 -10 2 -26
-11 -40 -31 -29 -42 -29 -47 0 -55 36 -9 107 -7 107 4 0 6 -8 10 -19 10 -10 0
-23 6 -29 13 -9 10 -4 17 18 31 26 15 30 23 30 62 0 24 -1 44 -3 44 -2 0 -13
-10 -25 -23z"/>
    <path d="M910 1633 c0 -41 1 -41 24 5 16 31 16 32 -4 32 -16 0 -20 -7 -20 -37z"/>
    <path d="M3091 1538 l-1 -123 60 65 c59 65 70 93 50 129 -8 17 -76 51 -99 51
-5 0 -10 -55 -10 -122z"/>
    <path d="M848 1447 c-53 -114 -60 -150 -22 -113 8 9 31 16 50 16 l34 0 0 110
c0 61 -1 110 -2 110 -2 0 -29 -55 -60 -123z"/>
    <path d="M836 1298 c3 -5 10 -6 15 -3 13 9 11 12 -6 12 -8 0 -12 -4 -9 -9z"/>
  </g>
  <g transform="translate(0.000000,573.000000) scale(0.100000,-0.100000)" fill="#505050" fill-rule="evenodd">
    <path d="M2570 5336 c0 -2 8 -10 18 -17 15 -13 16 -12 3 4 -13 16 -21 21 -21
13z"/>
    <path d="M545 5238 l-40 -43 43 40 c23 21 42 40 42 42 0 8 -9 0 -45 -39z"/>
    <path d="M405 2925 c0 -1111 1 -1564 2 -1007 2 558 2 1467 0 2020 -1 554 -2
98 -2 -1013z"/>
    <path d="M1398 4923 c261 -2 684 -2 940 0 257 1 44 2 -473 2 -517 0 -727 -1
-467 -2z"/>
    <path d="M2820 4870 c-9 -6 -10 -10 -3 -10 6 0 15 5 18 10 8 12 4 12 -15 0z"/>
    <path d="M1397 4863 c255 -2 671 -2 925 0 255 1 47 2 -462 2 -509 0 -717 -1
-463 -2z"/>
    <path d="M684 4748 l-29 -33 33 29 c17 17 32 31 32 33 0 8 -8 1 -36 -29z"/>
    <path d="M5780 4706 c0 -2 8 -10 18 -17 15 -13 16 -12 3 4 -13 16 -21 21 -21
13z"/>
    <path d="M511 4549 c-1 -21 24 -43 41 -36 8 3 6 6 -5 6 -10 1 -22 11 -27 24
-6 15 -9 17 -9 6z"/>
    <path d="M5891 4464 c0 -11 3 -14 6 -6 3 7 2 16 -1 19 -3 4 -6 -2 -5 -13z"/>
    <path d="M2628 1403 c7 -3 16 -2 19 1 4 3 -2 6 -13 5 -11 0 -14 -3 -6 -6z"/>
    <path d="M1818 1383 c6 -2 18 -2 25 0 6 3 1 5 -13 5 -14 0 -19 -2 -12 -5z"/>
    <path d="M2060 1386 c0 -2 11 -6 25 -8 13 -3 22 -1 19 3 -5 9 -44 13 -44 5z"/>
    <path d="M2639 1373 c-13 -16 -12 -17 4 -4 16 13 21 21 13 21 -2 0 -10 -8 -17
-17z"/>
    <path d="M2241 1343 c-7 -8 -11 -16 -8 -19 2 -2 10 2 17 11 17 20 9 27 -9 8z"/>
    <path d="M3019 1343 c-13 -16 -12 -17 4 -4 9 7 17 15 17 17 0 8 -8 3 -21 -13z"/>
    <path d="M2671 1334 c0 -11 3 -14 6 -6 3 7 2 16 -1 19 -3 4 -6 -2 -5 -13z"/>
    <path d="M1396 1332 c-2 -4 0 -14 6 -22 8 -12 9 -12 5 2 -3 9 -1 19 6 22 9 3
9 5 0 5 -6 1 -14 -3 -17 -7z"/>
    <path d="M2448 1323 c12 -2 30 -2 40 0 9 3 -1 5 -23 4 -22 0 -30 -2 -17 -4z"/>
    <path d="M1928 1303 c6 -2 18 -2 25 0 6 3 1 5 -13 5 -14 0 -19 -2 -12 -5z"/>
    <path d="M2170 1306 c0 -2 7 -7 16 -10 8 -3 12 -2 9 4 -6 10 -25 14 -25 6z"/>
    <path d="M1564 1275 c-18 -14 -18 -14 4 -8 12 3 22 9 22 14 0 12 -3 11 -26 -6z"/>
    <path d="M2690 1286 c0 -2 8 -10 18 -17 15 -13 16 -12 3 4 -13 16 -21 21 -21
13z"/>
    <path d="M1768 1273 c7 -3 16 -2 19 1 4 3 -2 6 -13 5 -11 0 -14 -3 -6 -6z"/>
    <path d="M5891 854 c0 -11 3 -14 6 -6 3 7 2 16 -1 19 -3 4 -6 -2 -5 -13z"/>
    <path d="M510 636 c0 -2 8 -10 18 -17 15 -13 16 -12 3 4 -13 16 -21 21 -21 13z"/>
    <path d="M5744 568 l-19 -23 23 19 c12 11 22 21 22 23 0 8 -8 2 -26 -19z"/>
    <path d="M883 423 c9 -2 23 -2 30 0 6 3 -1 5 -18 5 -16 0 -22 -2 -12 -5z"/>
    <path d="M5423 423 c9 -2 23 -2 30 0 6 3 -1 5 -18 5 -16 0 -22 -2 -12 -5z"/>
  </g>
  <g transform="translate(0.000000,573.000000) scale(0.100000,-0.100000)" fill="#1A1A5E" fill-rule="evenodd">
    <path d="M932 1615 c-20 -41 -22 -61 -21 -183 l1 -137 24 55 c14 30 38 82 54
115 16 33 43 90 59 128 l30 67 -63 0 -62 0 -22 -45z m8 -105 c0 -5 -4 -10 -10
-10 -5 0 -10 5 -10 10 0 6 5 10 10 10 6 0 10 -4 10 -10z"/>
    <path d="M1399 1574 c-22 -48 -39 -96 -37 -108 2 -11 -2 -25 -9 -31 -10 -8
-83 -169 -83 -182 0 -2 22 -3 50 -3 42 0 52 4 66 25 9 14 14 32 10 40 -3 8 -1
15 5 15 5 0 17 17 25 38 9 20 38 82 64 137 27 55 52 112 55 128 l7 27 -57 0
-56 0 -40 -86z m1 -124 c0 -5 -4 -10 -10 -10 -5 0 -10 5 -10 10 0 6 5 10 10
10 6 0 10 -4 10 -10z m-80 -180 c0 -5 -4 -10 -10 -10 -5 0 -10 5 -10 10 0 6 5
10 10 10 6 0 10 -4 10 -10z"/>
    <path d="M1791 1626 c-12 -18 -21 -36 -21 -39 0 -4 -23 -54 -51 -111 l-51
-104 -51 -13 c-29 -6 -57 -16 -63 -21 -22 -16 -4 -46 32 -53 34 -6 43 -18 24
-30 -5 -3 -10 -13 -10 -21 0 -12 4 -12 20 -4 11 6 25 8 31 4 17 -10 78 6 97
25 18 20 38 25 172 41 84 11 170 43 178 68 3 8 -12 12 -52 12 -31 0 -56 4 -56
8 0 13 -71 14 -123 1 -26 -6 -50 -9 -53 -6 -3 3 2 19 10 35 12 23 13 32 3 35
-8 4 -7 6 3 6 18 1 95 175 85 191 -3 5 -28 10 -55 10 -44 0 -50 -3 -69 -34z
m49 -36 c0 -5 -6 -10 -14 -10 -8 0 -18 5 -21 10 -3 6 3 10 14 10 12 0 21 -4
21 -10z m-70 -170 c0 -5 -2 -10 -4 -10 -3 0 -8 5 -11 10 -3 6 -1 10 4 10 6 0
11 -4 11 -10z m40 -70 c0 -5 -4 -10 -10 -10 -5 0 -10 5 -10 10 0 6 5 10 10 10
6 0 10 -4 10 -10z"/>
    <path d="M2304 1523 c-50 -101 -74 -139 -89 -141 -67 -11 -95 -24 -95 -42 0
-18 10 -25 33 -21 4 0 7 -4 7 -10 0 -6 7 -9 15 -6 17 7 30 -9 15 -18 -24 -15
-8 -31 31 -32 40 -2 99 19 99 35 0 13 100 34 187 39 75 4 84 7 120 38 l38 34
-52 1 c-29 0 -64 5 -78 12 -19 9 -40 9 -87 0 -34 -6 -63 -10 -65 -8 -2 2 19
55 47 117 28 62 48 118 46 126 -4 8 -23 13 -55 13 l-49 0 -68 -137z m94 66
c-2 -6 -8 -10 -13 -10 -5 0 -11 4 -13 10 -2 6 4 11 13 11 9 0 15 -5 13 -11z
m-114 -195 c21 -8 20 -43 -1 -50 -10 -3 -26 -10 -35 -15 -22 -11 -23 -3 -3 17
8 9 15 24 15 35 0 21 1 22 24 13z m-99 -64 c3 -5 1 -10 -4 -10 -6 0 -11 5 -11
10 0 6 2 10 4 10 3 0 8 -4 11 -10z"/>
    <path d="M2890 1646 c0 -22 50 -74 57 -58 7 17 23 15 23 -4 0 -12 5 -14 18 -9
32 15 82 18 82 6 0 -23 -29 -68 -54 -85 -15 -9 -26 -22 -26 -30 0 -7 -8 -20
-17 -28 -31 -26 -141 -83 -148 -76 -4 4 7 25 25 46 62 77 10 108 -71 42 -21
-16 -49 -35 -62 -41 -26 -12 -37 -35 -37 -77 0 -27 61 -94 68 -74 5 15 29 16
34 1 3 -8 22 -6 63 6 121 36 199 82 188 111 -3 9 2 14 15 14 36 0 42 22 41
143 -2 134 5 127 -121 127 -61 0 -78 -3 -78 -14z m170 -20 c0 -3 -4 -8 -10
-11 -5 -3 -10 -1 -10 4 0 6 5 11 10 11 6 0 10 -2 10 -4z"/>
  </g>
  <g transform="translate(0.000000,573.000000) scale(0.100000,-0.100000)" fill="#D8130F" fill-rule="evenodd">
    <path d="M4973 1725 c-244 -66 -390 -310 -328 -548 44 -169 163 -288 332 -332
325 -85 633 223 548 548 -64 247 -312 396 -552 332z"/>
  </g>
</svg>